<?xml version="1.0" encoding="iso-8859-1"?>
<!-- Generator: Adobe Illustrator 16.0.0, SVG Export Plug-In . SVG Version: 6.00 Build 0)  -->
<!DOCTYPE svg PUBLIC "-//W3C//DTD SVG 1.1//EN" "http://www.w3.org/Graphics/SVG/1.1/DTD/svg11.dtd">
<svg version="1.1" id="Layer_1" xmlns="http://www.w3.org/2000/svg" xmlns:xlink="http://www.w3.org/1999/xlink" x="0px" y="0px"
	 width="130px" height="130px" viewBox="0 0 130 130" style="enable-background:new 0 0 130 130;" xml:space="preserve">
<circle style="fill:#22B494;" cx="65.362" cy="62.583" r="52.6"/>
<g>
	<defs>
		<circle id="SVGID_1_" cx="65.362" cy="62.583" r="52.6"/>
	</defs>
	<clipPath id="SVGID_2_">
		<use xlink:href="#SVGID_1_"  style="overflow:visible;"/>
	</clipPath>
	<g style="clip-path:url(#SVGID_2_);">
		<g>
			<path style="fill:#EDF2FA;" d="M79.5,301.611l-0.009,0.629c-0.008,0.453-0.009,1.08-0.008,1.75
				c0.005,2.121,1.727,3.838,3.847,3.838h24.854c2.429,0,4.779-0.859,6.634-2.428l0,0v-2.352L79.5,301.611z"/>
			<path style="fill:#424143;" d="M93.535,296.094l21.282,6.955l-0.623,0.432c-1.801,1.246-3.952,1.887-6.142,1.824l-25.397-0.674
				c-1.642-0.047-3.016-1.305-3.152-2.941c-0.181-2.148,0.13-4.322,0.924-6.354l0,0L93.535,296.094z"/>
			<path style="fill:#3B3747;" d="M42.957,144.896l-7.014,21.857l-3.946,60.139l-4.445,28.855l-0.855,36.836
				c-0.011,1.621,1.151,2.752,2.827,2.752H39.91l13.846-68.443l10.285-43.66l9.404,43.66l-1.413,20.594
				c-0.108,1.586-0.034,3.18,0.223,4.748l6.737,41.217c0.304,1.609,1.634,2.643,3.404,2.643h10.677l1.193-68.678l0,0
				c1.284-4.828,1.604-9.861,0.943-14.813l-8.74-65.379L42.957,144.896z"/>
			<path style="opacity:0.05;fill:#010101;" d="M65.53,167.66l-18.372,61.334l-7.248,66.342l13.846-68.443l10.285-43.66l9.404,43.66
				l-1.413,20.594c-0.108,1.586-0.034,3.18,0.223,4.748l6.737,41.217c0.304,1.609,1.634,2.643,3.404,2.643L79,227.834L65.53,167.66z
				"/>
			<path style="fill:#424143;" d="M38.628,295.336l-9.524-0.115l-4.007,8.111c-0.348,1.811,0.775,3.578,2.562,4.033
				c3.651,0.932,7.458,1.082,11.172,0.441l0.405-0.07c1.685-0.289,2.909-1.758,2.894-3.467L38.628,295.336z"/>
			<path style="fill:#EDF2FA;" d="M42.129,304.27l-2.043-5.033c-0.311-1.359-0.801-2.67-1.458-3.9l0,0l2.42,7.758
				c0.016,1.709-1.301,2.021-2.42,2.27l-0.405,0.068c-3.714,0.641-7.521,0.49-11.172-0.439c-0.836-0.215-1.518-0.723-1.98-1.381
				c-0.187,1.711,0.895,3.322,2.588,3.754c3.651,0.932,7.458,1.082,11.172,0.441l0.405-0.07
				C40.92,307.447,42.145,305.979,42.129,304.27z"/>
			<path style="fill:#3B3747;" d="M78.185,18.781L78.185,18.781c-2.978-1.822-6.449-2.67-9.932-2.424l-8.486,0.597
				c-1.666,0.117-3.213,0.907-4.284,2.188l-3.663,4.376c-1.495,1.787-1.853,4.267-0.922,6.402l0,0l7.743,5.532l24.109,1.979l0,0
				l3.162-7.45C85.034,25.323,82.227,21.254,78.185,18.781z"/>
			<path style="fill:#484356;" d="M58.641,35.453l-7.743-5.532l-0.427,4.94c-0.125,1.459-0.006,2.93,0.354,4.35l0,0
				c1.349,5.313,6.249,15.539,6.377,19.179c0.129,3.64,1.608-5.139,1.608-5.139l4.884-6.913L58.641,35.453z"/>
			<g>
				<path style="fill:#35596F;" d="M113.74,114.6c-7.592-21.141-7.034-17.047-11.462-29.967c-3.234,6.506-10.886,13.1-12.844,13.223
					c2.16,5.43,3.777,14.002,3.777,14.002S114.81,117.58,113.74,114.6z"/>
			</g>
			<path style="fill:#4F7D88;" d="M24.354,87.406c0.753-9.43,6.017-19.381,19.761-21.511c13.744-2.132,32.507-1.414,40.997,0.011
				c8.49,1.426,16.564,10.147,18.031,19.708c-0.757,6.5-8.894,6.471-8.09,18.033l0,0l-5.64,6.885L88.36,141.83
				c-0.647,2.943,1.813,18.021,2.744,23.49c0.178,1.041-0.627,2.006-1.683,1.986c-7.958-0.146-15.802-1.988-23.006-5.412
				c-6.758-3.213-17.507-5.791-18.369-5.824c-3.773-0.148-7.954,5.145-10.335,8.715c-0.521,0.783-1.744,0.359-1.681-0.578
				c0.834-12.299,3.079-51.027-1.185-58.164C32.458,102.043,24.354,87.406,24.354,87.406z"/>
			<path style="opacity:0.05;fill:#010101;" d="M65.714,93.879c-0.217-0.656-0.127-1.131,0.883-1.305
				c0.682-0.119,1.325,0.166,1.955,0.451c0.498,0.225,1.232,0.592,2.104,1.037v-4.736c0-1.324,1.074-2.398,2.398-2.398h9.829
				c1.324,0,2.398,1.074,2.398,2.398v4.35c0.613-1.371,1.492-1.574,2.15-1.543c0.813,0.039,0.438,2.047,0.6,3.205l0.522,1.896
				c-0.925,1.908,1.038,6.064,3.238,10.393l-2.379,2.904l-0.651,19.35l-0.931,1.199l-0.371,11.035
				c-2.476-8.787-8.304-29.941-8.44-30.072c-0.108-0.102-0.2-0.201-0.299-0.303c-1.066-0.611-4.788-1.174-7.199-2.275
				c-1.826-0.836-2.572-2.758-2.185-3.26c0.315-0.412,0.261-0.977,0.021-1.436c-0.368-0.705-0.371-1.531-0.046-2.057
				c0.259-0.42,0.271-0.918,0.03-1.348c-0.646-1.152-0.15-2.75,1.313-2.459v-1.473C68.461,96.104,65.935,94.551,65.714,93.879z"/>
			<path style="opacity:0.05;fill:#010101;" d="M37.904,108.365c0,0-3.782,3.789,12.76,16.461
				c16.541,12.67-13.406,5.346-6.378,12.822c4.646,4.943,17.507,11.822,25.689,15.918c-1.115,0.211-2.292,0.166-3.444-0.186
				l-5.009-1.289c-1.787-0.459-3.399-0.857-4.989-1.225c-5.541-1.273-11.37-0.906-16.636,1.24c-0.261,0.105-1.426,1.148-2.93,2.547
				c0.729-14.223,1.638-42.322-2.121-48.611c-1.31-2.193-4.337-7.584-6.806-12.008c-0.929-2.789-1.595-4.807-1.595-4.807
				L37.904,108.365z"/>
			<path style="fill:#E58E7A;" d="M70.357,50.865l-13.923-1.184l-0.061,5.175c0.49,7.428-3.336,12.464-3.336,12.464
				c4.406,6.164,15.05,13.793,18.838,13.74c4.981-0.066,8.557-13.445,7.493-13.666c-2.071-0.432-3.651-2.108-3.855-4.214
				l-0.776-7.988C74.514,52.881,72.671,51.061,70.357,50.865z"/>
			<path style="fill:#F8AA95;" d="M82.75,37.431L82.75,37.431l-0.39,17.932c-0.015,0.675-0.279,1.32-0.742,1.811l-2.293,2.429
				c-1.727,1.829-4.35,2.507-6.747,1.744l-12.457-3.967c-1.121-0.357-1.986-1.256-2.302-2.389l-1.914-6.889l-0.704,0.071
				c-0.88,0.09-1.727-0.237-2.315-0.844c-0.386-0.396-0.6-0.929-0.697-1.472l-0.904-5.024c-0.211-1.165,0.724-2.221,1.906-2.154l0,0
				c0.816,0.045,1.504,0.627,1.685,1.425l1.18,5.207l2.64-1.286l-0.054-8.572l0,0C61.726,25.708,81.145,35.021,82.75,37.431z"/>
			<path style="fill:#3B3747;" d="M75.516,53.171c1.367,0.396,2.829,0.315,4.145-0.23l0,0c1.112-0.461,2.916,0.097,2.916,0.097
				c0.033,3.388-1.08,9.439-3.052,12.194l0,0c-1.728,1.829-4.35,2.508-6.748,1.745c0,0-12.971-3.039-14.758-6.356
				c-1.788-3.317-2.113-12.519-2.113-12.519l0.149-2.791l2.64-1.286c0,0,1.252,11.403,4.825,11.355
				c0.923-0.013,5.287-3.562,6.936-3.378C72.104,52.185,75.516,53.171,75.516,53.171z"/>
			<path style="fill:#F8AA95;" d="M94.453,96.549c3.587,5.395,12.209,10.389,16.192,13.377c3.983,2.986,3.608,8.113,3.945,11.922
				c0.283,3.205-8.081,5.793-15.72-0.557s-5.578-13.346-12.831-16.57C78.081,101.186,90.813,93.816,94.453,96.549z"/>
			<path style="fill:#35596F;" d="M88.763,67.182c0,0-0.973,24.766,2.331,28.854c3.305,4.09,19.284,9.412,19.284,9.412
				S105.36,72.625,88.763,67.182z"/>
			<g>
				<g>
					<path style="fill:#FFFFFF;" d="M84.782,79.068h9.828c1.325,0,2.111,1.074,1.756,2.398l-4.973,18.561
						c-0.355,1.324-1.717,2.398-3.042,2.398H77.924c-1.324,0-1.511-1.074-1.156-2.398l2.013-7.512l1.441-5.379l1.52-5.67
						C82.096,80.143,83.458,79.068,84.782,79.068z"/>
				</g>
				<g>
					<path style="fill:#3D3D3C;" d="M85.725,79.725h9.827c1.325,0,2.111,1.074,1.757,2.398l-4.798,17.904
						c-0.354,1.324-1.717,2.398-3.041,2.398H79.042c-1.325,0-1.512-1.074-1.156-2.398l1.837-6.855l1.441-5.379l1.52-5.67
						C83.038,80.799,84.399,79.725,85.725,79.725z"/>
				</g>
				<path style="fill:#C2C4C5;" d="M94.318,81.496c0.521,0,0.874,0.254,0.79,0.568c-0.084,0.313-0.574,0.568-1.094,0.568
					c-0.521,0-0.875-0.256-0.791-0.568C93.308,81.75,93.798,81.496,94.318,81.496z"/>
				<path style="fill:#F8AA95;" d="M77.753,85.369c0.713-0.117,1.281,0.168,1.835,0.453c2.445,1.258,10.934,6.852,13.075,6.666
					c2.433-0.209,2.25-3.273,2.25-3.273c0.195-0.824,0.517-1.652,1.008-2.426c1.062-1.674,2.088-1.893,2.786-1.859
					c0.804,0.039-0.11,2.047-0.259,3.203l0.048,6.322l-5.148,8.744l-5.787,2.248c0.085-0.746-6.95-1.906-9.407-3.188
					c-1.602-0.834-1.833-2.756-1.311-3.26c0.426-0.41,0.521-0.977,0.404-1.436c-0.179-0.703,0.039-1.531,0.505-2.057
					c0.372-0.418,0.519-0.918,0.392-1.348c-0.337-1.15,0.587-2.748,1.973-2.457c1.738,0.633,2.785,2.047,2.755,0.297
					c-1.347-1.184-6.288-4.295-6.351-5.324C76.48,86.018,76.697,85.545,77.753,85.369z"/>
			</g>
			<path style="fill:#F8AA95;" d="M37.904,108.365l-3.985,16.807c0,0,10.87,28.256,11.117,30.168
				c0.247,1.91,5.719,4.807,5.719,4.807c2.278,1.822-7.545,12.191-7.545,12.191l-3.366-12.453c0,0-11.057-14.205-14.218-18.912
				c-2.432-3.619-5.346-10.961-6.563-14.158c-0.381-1.004-0.493-2.084-0.329-3.146c0.895-5.793,3.998-25.881,5.62-36.262
				C36.016,95.762,37.904,108.365,37.904,108.365z"/>
		</g>
		<path style="fill:#35596F;" d="M20.003,115.459l15.504,6.482c0,0,7.864-21.904,6.622-25.986
			c-1.163-3.824,0.949-23.107-7.249-25.395c-0.556-0.156-1.158-0.232-1.813-0.223C22.754,70.514,20.003,115.459,20.003,115.459z"/>
	</g>
</g>
</svg>
