<?xml version="1.0" encoding="iso-8859-1"?>
<!-- Generator: Adobe Illustrator 16.0.0, SVG Export Plug-In . SVG Version: 6.00 Build 0)  -->
<!DOCTYPE svg PUBLIC "-//W3C//DTD SVG 1.1//EN" "http://www.w3.org/Graphics/SVG/1.1/DTD/svg11.dtd">
<svg version="1.1" id="Layer_1" xmlns="http://www.w3.org/2000/svg" xmlns:xlink="http://www.w3.org/1999/xlink" x="0px" y="0px"
	 width="130px" height="130px" viewBox="0 0 130 130" style="enable-background:new 0 0 130 130;" xml:space="preserve">
<circle style="fill:#22B494;" cx="66.518" cy="63.569" r="47.22"/>
<g>
	<g>
		<g>
			<g>
				
					<rect x="32.423" y="33.734" transform="matrix(0.3936 0.9193 -0.9193 0.3936 93.0453 -25.7864)" style="fill:#FFFFFF;" width="67.292" height="47.806"/>
			</g>
		</g>
	</g>
	<g>
		
			<rect x="62.965" y="39.841" transform="matrix(0.9193 -0.3937 0.3937 0.9193 -10.2607 31.4728)" style="fill:#B7BFC7;" width="17.253" height="1.816"/>
		
			<rect x="64.157" y="42.624" transform="matrix(0.9193 -0.3936 0.3936 0.9193 -11.2595 32.1626)" style="fill:#DCE4E8;" width="17.253" height="1.816"/>
		
			<rect x="65.347" y="45.407" transform="matrix(0.9193 -0.3936 0.3936 0.9193 -12.2589 32.8585)" style="fill:#DCE4E8;" width="17.254" height="1.816"/>
		
			<rect x="66.54" y="48.189" transform="matrix(0.9193 -0.3937 0.3937 0.9193 -13.2582 33.5543)" style="fill:#DCE4E8;" width="17.253" height="1.816"/>
	</g>
	
		<rect x="38.335" y="39.142" transform="matrix(0.9193 -0.3936 0.3936 0.9193 -11.033 26.3066)" style="fill:#DCE4E8;" width="40.56" height="1.816"/>
	
		<rect x="35.952" y="30.55" transform="matrix(0.9193 -0.3936 0.3936 0.9193 -9.0346 24.9187)" style="fill:#B7BFC7;" width="40.561" height="7.87"/>
	<g>
		
			<rect x="46.438" y="58.063" transform="matrix(0.9193 -0.3936 0.3936 0.9193 -17.8269 31.0236)" style="fill:#DCE4E8;" width="40.56" height="1.816"/>
		
			<rect x="47.629" y="60.845" transform="matrix(0.9193 -0.3936 0.3936 0.9193 -18.8256 31.7164)" style="fill:#DCE4E8;" width="40.561" height="1.817"/>
		
			<rect x="48.82" y="63.629" transform="matrix(0.9193 -0.3936 0.3936 0.9193 -19.8251 32.4107)" style="fill:#DCE4E8;" width="40.56" height="1.815"/>
	</g>
	<g>
		
			<rect x="55.731" y="79.767" transform="matrix(0.9193 -0.3936 0.3936 0.9193 -25.6203 36.4353)" style="fill:#DCE4E8;" width="40.561" height="1.816"/>
		
			<rect x="57.289" y="84.336" transform="matrix(0.9193 -0.3936 0.3936 0.9193 -27.6594 35.6287)" style="fill:#DCE4E8;" width="31.48" height="1.816"/>
	</g>
	<g>
		
			<rect x="51.634" y="71.596" transform="matrix(0.9193 -0.3936 0.3936 0.9193 -23.2842 31.4811)" style="fill:#B7BFC7;" width="26.94" height="1.816"/>
		
			<rect x="52.826" y="74.378" transform="matrix(0.9193 -0.3937 0.3937 0.9193 -24.2839 32.1758)" style="fill:#DCE4E8;" width="26.939" height="1.816"/>
		
			<rect x="54.017" y="77.161" transform="matrix(0.9193 -0.3936 0.3936 0.9193 -25.2824 32.8684)" style="fill:#DCE4E8;" width="26.94" height="1.816"/>
		
			<rect x="81.032" y="62.773" transform="matrix(0.9192 -0.3937 0.3937 0.9192 -19.291 39.376)" style="fill:#64C3EE;" width="10.594" height="7.87"/>
	</g>
	<g>
		
			<rect x="43.938" y="51.629" transform="matrix(0.9193 -0.3935 0.3935 0.9193 -18.8306 22.3133)" style="fill:#DCE4E8;" width="2.119" height="10.896"/>
		
			<rect x="46.72" y="50.437" transform="matrix(0.9193 -0.3935 0.3935 0.9193 -18.1373 23.3121)" style="fill:#DCE4E8;" width="2.119" height="10.896"/>
		
			<rect x="49.503" y="49.245" transform="matrix(0.9191 -0.3939 0.3939 0.9191 -17.4567 24.3398)" style="fill:#DCE4E8;" width="2.12" height="10.898"/>
		
			<rect x="52.285" y="48.054" transform="matrix(0.9191 -0.3939 0.3939 0.9191 -16.7623 25.3394)" style="fill:#DCE4E8;" width="2.12" height="10.897"/>
		
			<rect x="55.068" y="46.862" transform="matrix(0.9192 -0.3937 0.3937 0.9192 -16.0617 26.3216)" style="fill:#DCE4E8;" width="2.118" height="10.897"/>
		
			<rect x="57.851" y="45.671" transform="matrix(0.9194 -0.3933 0.3933 0.9194 -15.358 27.2897)" style="fill:#DCE4E8;" width="2.118" height="10.897"/>
		
			<rect x="60.633" y="44.479" transform="matrix(0.9192 -0.3937 0.3937 0.9192 -14.6739 28.3202)" style="fill:#DCE4E8;" width="2.118" height="10.896"/>
		
			<rect x="45.129" y="57.437" transform="matrix(0.9193 -0.3935 0.3935 0.9193 -19.8294 23.0066)" style="fill:#64C3EE;" width="2.119" height="4.843"/>
		
			<rect x="47.733" y="55.375" transform="matrix(0.9191 -0.3939 0.3939 0.9191 -19.0007 23.9301)" style="fill:#64C3EE;" width="2.12" height="5.75"/>
		
			<rect x="50.933" y="56.217" transform="matrix(0.9192 -0.3937 0.3937 0.9192 -18.6486 25.1559)" style="fill:#64C3EE;" width="2.118" height="3.633"/>
		
			<rect x="53.12" y="52.12" transform="matrix(0.9192 -0.3937 0.3937 0.9192 -17.4549 25.8081)" style="fill:#64C3EE;" width="2.118" height="6.66"/>
		
			<rect x="55.664" y="49.767" transform="matrix(0.9194 -0.3933 0.3933 0.9194 -16.55 26.6374)" style="fill:#64C3EE;" width="2.118" height="7.871"/>
		
			<rect x="59.638" y="54.385" transform="matrix(0.9192 -0.3937 0.3937 0.9192 -16.8668 28.3618)" style="fill:#64C3EE;" width="2.118" height="1.816"/>
		
			<rect x="61.825" y="50.289" transform="matrix(0.9192 -0.3937 0.3937 0.9192 -15.6733 29.014)" style="fill:#64C3EE;" width="2.118" height="4.842"/>
	</g>
</g>
<g>
	<g>
		<g>
			<polygon style="fill:#F8B232;" points="48.544,53.498 37.73,88.504 37.261,90.025 38.782,90.496 50.066,53.968 			"/>
			<path style="fill:#DE9327;" d="M38.896,90.711l-1.849-0.572l0.52-1.686l10.864-35.169l1.851,0.571L38.896,90.711z M37.475,89.912
				l1.194,0.369l11.183-36.2l-1.194-0.369L37.475,89.912z"/>
		</g>
		<g>
			<polygon style="fill:#F8B232;" points="48.544,53.498 47.022,53.027 35.738,89.556 37.261,90.025 37.73,88.504 			"/>
			<path style="fill:#DE9327;" d="M37.374,90.24l-1.851-0.571l11.386-36.856l1.849,0.572l-0.05,0.164L37.374,90.24z M35.953,89.442
				l1.194,0.368L48.33,53.611l-1.194-0.369L35.953,89.442z"/>
		</g>
	</g>
	<g>
		<polygon style="fill:#474F5D;" points="50.425,47.41 49.574,48.814 50.336,49.05 		"/>
		<polygon style="fill:#F8FAF8;" points="49.574,48.814 47.022,53.027 50.066,53.968 50.336,49.05 		"/>
	</g>
	<g>
		
			<rect x="37.078" y="84.862" transform="matrix(0.9555 0.2949 -0.2949 0.9555 26.9222 -7.6036)" style="fill:#EF8556;" width="3.186" height="1.195"/>
	</g>
</g>
</svg>
