<?xml version="1.0" encoding="iso-8859-1"?>
<!-- Generator: Adobe Illustrator 16.0.0, SVG Export Plug-In . SVG Version: 6.00 Build 0)  -->
<!DOCTYPE svg PUBLIC "-//W3C//DTD SVG 1.1//EN" "http://www.w3.org/Graphics/SVG/1.1/DTD/svg11.dtd">
<svg version="1.1" id="Layer_1" xmlns="http://www.w3.org/2000/svg" xmlns:xlink="http://www.w3.org/1999/xlink" x="0px" y="0px"
	 width="130px" height="130px" viewBox="0 0 130 130" style="enable-background:new 0 0 130 130;" xml:space="preserve">
<circle style="fill:#22B494;" cx="66.124" cy="63.489" r="47.22"/>
<g>
	<ellipse style="opacity:0.19;fill:#3E707A;" cx="58.136" cy="88.398" rx="51.762" ry="2.776"/>
	<g>
		<path style="opacity:0.19;fill:#3E707A;" d="M10.784,87.913L10.784,87.913c0.198,0.303,0.536,0.485,0.898,0.485h87.259
			c0.592,0,1.072-0.479,1.074-1.072l0.004-3.232c0-0.223-0.068-0.439-0.197-0.621l-0.92-1.3c-0.201-0.284-0.527-0.453-0.875-0.454
			L97.43,81.71c-1.834-0.003-3.32-1.491-3.32-3.325V41.068c0-0.426-0.102-0.845-0.297-1.223l-3.535-6.818v46.341
			c0,0.593-0.48,1.073-1.072,1.073l-70.177-0.227c-0.82,0-1.337,0.883-0.937,1.599l6.263,2.84c0.401,0.716-0.116,1.599-0.937,1.599
			H11.682C10.829,86.252,10.316,87.199,10.784,87.913z"/>
		<g>
			<g>
				<path style="fill:#EDEDEE;" d="M11.039,87.3c-0.289,0-0.524-0.235-0.524-0.524v-3.76c0-0.289,0.235-0.523,0.524-0.523h87.305
					c0.289,0,0.525,0.234,0.525,0.523v3.76c0,0.289-0.236,0.524-0.525,0.524H11.039z"/>
			</g>
			<path style="fill:#D2D2D2;" d="M98.32,87.3H11.063c-0.137,0-0.248-0.11-0.248-0.248v-0.226c0-0.137,0.111-0.248,0.248-0.248
				H98.32c0.137,0,0.248,0.111,0.248,0.248v0.226C98.568,87.189,98.457,87.3,98.32,87.3z"/>
			<g>
				<path style="fill:#C2C2C2;" d="M48.902,85.033c-0.711,0-1.289-0.578-1.289-1.288v-1.253h14.156v1.253
					c0,0.71-0.577,1.288-1.288,1.288H48.902z"/>
			</g>
			<g>
				<g>
					<path style="fill:#E0E1E0;" d="M60.669,84.053H48.713c-0.524,0-0.95-0.425-0.95-0.949v-0.611H61.62v0.611
						C61.62,83.628,61.194,84.053,60.669,84.053z"/>
				</g>
			</g>
			<g>
				<rect x="17.877" y="33.027" style="fill:#2E2E2E;" width="73.628" height="47.986"/>
				<rect x="21.701" y="36.85" style="opacity:0.83;fill:#FFFFFF;" width="65.981" height="40.342"/>
				<circle style="fill:#818181;" cx="54.691" cy="34.859" r="0.588"/>
			</g>
		</g>
	</g>
</g>
<g>
	<defs>
		<rect id="SVGID_1_" x="21.701" y="36.381" width="65.981" height="42.426"/>
	</defs>
	<clipPath id="SVGID_2_">
		<use xlink:href="#SVGID_1_"  style="overflow:visible;"/>
	</clipPath>
	<g style="clip-path:url(#SVGID_2_);">
		<g>
			<g>
				<g>
					<polygon style="fill:#FFFFFF;" points="20.866,107.054 21.35,36.381 86.227,36.647 85.742,107.32 					"/>
				</g>
			</g>
		</g>
		<g>
			<polygon style="fill:#B7BFC7;" points="81.266,56.988 57.852,56.893 57.839,58.8 81.252,58.896 			"/>
			<polygon style="fill:#DCE4E8;" points="81.244,60.168 57.831,60.072 57.817,61.979 81.23,62.075 			"/>
			<polygon style="fill:#DCE4E8;" points="81.223,63.347 57.808,63.25 57.795,65.158 81.209,65.254 			"/>
			<polygon style="fill:#DCE4E8;" points="81.201,66.525 57.787,66.43 57.773,68.337 81.188,68.434 			"/>
		</g>
		<polygon style="fill:#DCE4E8;" points="81.307,50.949 26.264,50.723 26.251,52.63 81.295,52.856 		"/>
		<polygon style="fill:#B7BFC7;" points="81.373,41.412 26.33,41.186 26.273,49.451 81.316,49.677 		"/>
		<g>
			<polygon style="fill:#DCE4E8;" points="81.158,72.566 26.117,72.34 26.103,74.247 81.146,74.473 			"/>
			<polygon style="fill:#DCE4E8;" points="81.137,75.744 26.094,75.518 26.082,77.426 81.123,77.652 			"/>
			<polygon style="fill:#DCE4E8;" points="81.115,78.924 26.073,78.697 26.06,80.604 81.102,80.831 			"/>
		</g>
		<g>
			<polygon style="fill:#DCE4E8;" points="80.988,97.361 25.946,97.135 25.933,99.042 80.977,99.269 			"/>
			<polygon style="fill:#DCE4E8;" points="68.645,100.489 25.924,100.314 25.912,102.222 68.631,102.396 			"/>
		</g>
		<g>
			<polygon style="fill:#B7BFC7;" points="62.589,84.888 26.031,84.737 26.018,86.645 62.577,86.795 			"/>
			<polygon style="fill:#DCE4E8;" points="62.568,88.066 26.009,87.917 25.997,89.823 62.554,89.975 			"/>
			<polygon style="fill:#DCE4E8;" points="62.546,91.245 25.988,91.096 25.975,93.003 62.533,93.152 			"/>
			<polygon style="fill:#64C3EE;" points="81.074,84.964 66.697,84.904 66.641,93.17 81.018,93.229 			"/>
		</g>
		<g>
			<polygon style="fill:#DCE4E8;" points="29.098,56.775 26.223,56.763 26.144,68.207 29.02,68.219 			"/>
			<polygon style="fill:#DCE4E8;" points="33.207,56.791 30.331,56.78 30.252,68.225 33.127,68.236 			"/>
			<polygon style="fill:#DCE4E8;" points="37.314,56.809 34.438,56.797 34.36,68.241 37.236,68.252 			"/>
			<polygon style="fill:#DCE4E8;" points="41.421,56.825 38.546,56.813 38.467,68.258 41.343,68.27 			"/>
			<polygon style="fill:#DCE4E8;" points="45.529,56.842 42.654,56.83 42.576,68.274 45.451,68.286 			"/>
			<polygon style="fill:#DCE4E8;" points="49.636,56.859 46.761,56.847 46.683,68.291 49.558,68.304 			"/>
			<polygon style="fill:#DCE4E8;" points="53.745,56.876 50.869,56.864 50.791,68.309 53.666,68.32 			"/>
			<polygon style="fill:#64C3EE;" points="29.055,63.133 26.179,63.121 26.144,68.207 29.02,68.219 			"/>
			<polygon style="fill:#64C3EE;" points="33.169,62.195 30.294,62.185 30.252,68.225 33.127,68.236 			"/>
			<polygon style="fill:#64C3EE;" points="37.261,64.438 34.386,64.426 34.36,68.241 37.236,68.252 			"/>
			<polygon style="fill:#64C3EE;" points="41.391,61.275 38.515,61.264 38.467,68.258 41.343,68.27 			"/>
			<polygon style="fill:#64C3EE;" points="45.507,60.021 42.632,60.009 42.576,68.274 45.451,68.286 			"/>
			<polygon style="fill:#64C3EE;" points="49.572,66.396 46.696,66.384 46.683,68.291 49.558,68.304 			"/>
			<polygon style="fill:#64C3EE;" points="53.701,63.233 50.826,63.222 50.791,68.309 53.666,68.32 			"/>
		</g>
	</g>
</g>
<g>
	<path style="fill:#19B5EA;" d="M76.182,104.194c-1.414-0.718-1.986-2.46-1.268-3.877l16.131-31.765
		c0.719-1.416,2.465-1.988,3.879-1.271l14.939,7.586c1.414,0.718,1.982,2.466,1.264,3.882l-16.129,31.766
		c-0.721,1.416-2.463,1.982-3.877,1.265L76.182,104.194z"/>
	<path style="fill:#252E3C;" d="M75.262,101.928c-1.414-0.718-1.986-2.46-1.268-3.877l16.131-31.766
		c0.719-1.416,2.465-1.986,3.879-1.27l14.939,7.586c1.414,0.718,1.982,2.465,1.264,3.882l-16.129,31.766
		c-0.721,1.416-2.465,1.982-3.877,1.265L75.262,101.928z"/>
	<path style="fill:#131A26;" d="M86.307,104.191c-0.172,0.342-0.584,0.477-0.924,0.304l-3.227-1.638
		c-0.336-0.171-0.477-0.587-0.305-0.928l0.131-0.257c0.172-0.337,0.594-0.474,0.93-0.303l3.227,1.639
		c0.34,0.173,0.471,0.589,0.299,0.926L86.307,104.191z"/>
	<path style="fill:#131A26;" d="M100.803,71.975c-0.209,0.409-0.705,0.576-1.117,0.367c-0.416-0.211-0.576-0.712-0.367-1.121
		c0.205-0.406,0.705-0.573,1.121-0.361C100.85,71.068,101.008,71.568,100.803,71.975z"/>
	<path style="fill:#FFFFFF;" d="M100.408,71.774c-0.1,0.194-0.33,0.274-0.523,0.176c-0.193-0.098-0.271-0.335-0.174-0.529
		c0.098-0.19,0.336-0.27,0.529-0.171C100.434,71.348,100.504,71.584,100.408,71.774z"/>
	
		<rect x="81.94" y="75.053" transform="matrix(0.8917 0.4527 -0.4527 0.8917 49.9042 -31.8861)" style="fill:#FFFFFF;" width="19.256" height="26.528"/>
	<g>
		<g>
			
				<rect x="79.251" y="93.48" transform="matrix(0.8918 0.4525 -0.4525 0.8918 51.5399 -26.1491)" style="fill:#E6E5E5;" width="2.354" height="2.355"/>
			
				<rect x="82.4" y="95.079" transform="matrix(0.8916 0.4528 -0.4528 0.8916 52.6504 -27.412)" style="fill:#F36E41;" width="2.353" height="2.355"/>
			
				<rect x="85.548" y="96.678" transform="matrix(0.8918 0.4525 -0.4525 0.8918 53.6683 -28.6525)" style="fill:#E6E5E5;" width="2.354" height="2.355"/>
			
				<rect x="88.697" y="98.276" transform="matrix(0.8916 0.4528 -0.4528 0.8916 54.781 -29.9169)" style="fill:#E6E5E5;" width="2.353" height="2.355"/>
			
				<rect x="91.843" y="99.875" transform="matrix(0.8916 0.4528 -0.4528 0.8916 55.8454 -31.1687)" style="fill:#E6E5E5;" width="2.355" height="2.354"/>
		</g>
	</g>
	
		<rect x="88.478" y="74.263" transform="matrix(0.8916 0.4528 -0.4528 0.8916 44.7883 -36.2436)" style="fill:#F36E41;" width="19.257" height="2.355"/>
	<g>
		<polygon style="fill:#E6E5E5;" points="90.352,80.95 88.945,83.721 93.463,86.014 91.779,89.33 94.783,90.855 95.559,93.231 
			96.359,91.656 97.355,92.162 100.447,86.076 		"/>
		<polygon style="fill:#F36E41;" points="87.262,87.036 88.945,83.721 86.732,82.597 84.355,87.278 85.502,87.86 84.902,89.04 
			86.682,88.46 91.086,90.696 91.779,89.33 		"/>
		<g>
			<g>
				<g>
					
						<rect x="88.939" y="85.525" transform="matrix(0.8918 0.4525 -0.4525 0.8918 48.6134 -31.7995)" style="fill:#252E3C;" width="3.671" height="0.375"/>
				</g>
				<g>
					
						<rect x="88.527" y="86.338" transform="matrix(0.8918 0.4525 -0.4525 0.8918 48.9364 -31.5251)" style="fill:#252E3C;" width="3.671" height="0.375"/>
				</g>
				<g>
					
						<rect x="88.213" y="86.735" transform="matrix(0.8916 0.4527 -0.4527 0.8916 49.0109 -30.9343)" style="fill:#252E3C;" width="1.836" height="0.374"/>
				</g>
			</g>
		</g>
	</g>
</g>
</svg>
