<?xml version="1.0" encoding="iso-8859-1"?>
<!-- Generator: Adobe Illustrator 16.0.0, SVG Export Plug-In . SVG Version: 6.00 Build 0)  -->
<!DOCTYPE svg PUBLIC "-//W3C//DTD SVG 1.1//EN" "http://www.w3.org/Graphics/SVG/1.1/DTD/svg11.dtd">
<svg version="1.1" id="Layer_1" xmlns="http://www.w3.org/2000/svg" xmlns:xlink="http://www.w3.org/1999/xlink" x="0px" y="0px"
	 width="130px" height="130px" viewBox="0 0 130 130" style="enable-background:new 0 0 130 130;" xml:space="preserve">
<g>
	<circle style="fill:#22B494;" cx="66.069" cy="63.502" r="46.684"/>
	<g>
		<defs>
			<circle id="SVGID_1_" cx="66.069" cy="63.502" r="46.684"/>
		</defs>
		<use xlink:href="#SVGID_1_"  style="overflow:visible;fill:#22B494;"/>
		<clipPath id="SVGID_2_">
			<use xlink:href="#SVGID_1_"  style="overflow:visible;"/>
		</clipPath>
		<g style="clip-path:url(#SVGID_2_);">
			<g>
				<g>
					<path style="fill:#DDAC9E;" d="M56.813,138.379c1.613,4.652,1.063,7.809,1.363,9.721c0.299,1.91,1.052,8.961,4.818,17.23
						c3.755,8.262,3.154,10.059,2.965,13.336c-0.178,3.277-1.39,5.609,0.537,6.656c1.915,1.037,5.825-3.436,5.894-7.617
						c0.047-2.768-0.849-3.424-1.488-5.285c-0.646-1.863-1.477-10.561-2.04-16.332c-0.554-5.775-1.525-8.627-1.488-11.275
						c0.057-4.068-0.773-7.762-0.773-7.762L56.813,138.379z"/>
				</g>
				<path style="fill:#010101;" d="M71.506,173.656c0.542,0.299,1.541,1.512,1.541,3.359c0,1.846,0.227,5.746,0.227,5.746
					s-0.537,0.586-0.681,0.037c-0.242-0.947-0.363-2.094-0.632-2.678c-0.065-0.146,0.087,4.275-0.635,6.121
					c-0.983,2.51-4.183,1.973-4.183,1.973s2.832-2.836,4.233-10.195C72.043,174.488,71.506,173.656,71.506,173.656z"/>
			</g>
			<g>
				<path style="fill:#E9C3B7;" d="M77.591,138.568c-1.36,4.717-0.878,10.838-1.066,12.754c-0.203,1.924-0.581,8.994-3.885,17.422
					c-3.309,8.426-3.057,9.418-2.695,12.68c0.364,3.268,0.773,6.16,0.23,6.66c-3.966,3.674-6.891,0.5-6.459-3.658
					c0.313-3.068,0.562-5.453,0.881-7.24c0.111-0.629,0.24-1.195,0.38-1.684c0.545-1.891,0.883-9.848,1.133-15.641
					c0.242-5.789,1.074-8.955,0.889-11.605c-0.274-4.066-0.03-10.949-0.03-10.949L77.591,138.568z"/>
				<path style="fill:#232121;" d="M70.108,182.107c0.408,3.271-1.149,5.477-2.985,5.477c-1.831,0-3.298-2.518-3.395-4.785
					c-0.635,2.689-1.083,4.596-0.064,6.928c1.763,4.045,5.438,3.305,6.853,0.246C72.146,186.451,70.108,182.107,70.108,182.107z"/>
			</g>
			<path style="fill:#5E2115;" d="M76.01,38.607c1.63,3.835,5.998,23.655,6.722,25.333c0.721,1.678-17.02,3.275-17.02,3.275
				l-1.442-22.74L76.01,38.607z"/>
			<path style="fill:#30130D;" d="M55.494,38.356c-0.812,2.259-7.507,26.921-7.507,26.921h20.631l-8.687-28.935L55.494,38.356z"/>
			<path style="fill:#DDAC9E;" d="M47.216,106.053c-0.386,2.695-2.119,4.75-2.119,5.83s0.596,2.973,0.172,4.098
				c-0.366,0.986-0.844,2.818-1.619,4.256c-0.779,1.434-0.732-2.334-0.343-3.236c0.383-0.896,0.19-1.254-0.39-0.717
				c-0.583,0.537-0.771,2.516-0.583,3.051c0.196,0.537,2.906,0.148,2.906,0.148s0.421-0.105,0.342,0.389
				c-0.192,1.188-2.39,1.703-3.351,1.42c-1.213-0.367-3.764-1.957-3.764-2.852c0-0.898,2.18-6.283,2.372-7.365
				c0.19-1.076,1.4-7.813,1.4-7.813L47.216,106.053z"/>
			<polygon style="fill:#D8D9D8;" points="39.821,108.627 39.173,112.475 46.252,113.24 46.436,109.484 			"/>
			<g>
				<path style="fill:#E9C3B7;" d="M66.863,65.385l-5.736-5.087c0,0,1.038-7.513,1.038-8.502l4.281-0.204v-0.008l0.031,0.008
					l0.02-0.008v0.008l4.296,0.204c0,0.989,1.176,9.041,1.176,9.041L66.863,65.385L66.863,65.385L66.863,65.385z"/>
				<g>
					
						<linearGradient id="SVGID_3_" gradientUnits="userSpaceOnUse" x1="-244.5845" y1="63.416" x2="-248.7446" y2="49.4706" gradientTransform="matrix(-1 0 0 1 -181.1289 0)">
						<stop  offset="0" style="stop-color:#FFFFFF"/>
						<stop  offset="0.6429" style="stop-color:#C6C0B9"/>
					</linearGradient>
					<path style="fill:url(#SVGID_3_);" d="M66.387,51.41v-0.004l0.032,0.004l0.027-0.004v0.004l4.274,0.216
						c0,0.321,0.137,1.403,0.307,2.716c-1.074,1.48-6.323,6.454-8.388,6.454c-1.721,0-0.428,0.549-1.529-0.532
						c0.227-1.611,0.998-8.254,0.998-8.638L66.387,51.41z"/>
				</g>
			</g>
			<g>
				<g>
					<path style="fill:#E9C3B7;" d="M57.207,44.813c0.815,5.849,5.936,10.833,8.976,10.833c3.398-0.004,7.764-3.203,9.076-10.686
						c1.063-6.147-0.612-12.249-8.907-12.249C58.565,32.712,56.356,38.678,57.207,44.813z"/>
				</g>
				<g>
					<path style="fill:#DDAC9E;" d="M57.207,44.806c-0.582-6.146,1.341-12.065,9.101-12.094v22.913
						c-0.032,0-0.085,0.018-0.125,0.018C63.143,55.643,57.934,52.507,57.207,44.806z"/>
				</g>
			</g>
			<path style="fill:#30130D;" d="M64.092,37.141c-2.563,2.263-4.589,3.492-5.584,7.44c-0.438,1.757-1.834,5.728-1.972,6.986
				c-0.24,2.246-2.579-3.959-2.579-3.959s-0.612-10.674,5.819-14.612c2.841-1.744,4.334-0.787,4.493-0.43
				C64.423,32.924,64.092,37.141,64.092,37.141z"/>
			<path style="fill:#5E2115;" d="M62.781,37.854c1.902,1.981,9.428,1.885,10.85,6.92c0.397,1.394,2.409,7.254,1.357,9.434
				c-1.365,2.861,2.583-3.519,2.583-3.519s0.951-9.765-3.522-15.605c-4.353-5.665-10.929-3.443-10.955-2.94
				C63.072,32.534,62.781,37.854,62.781,37.854z"/>
			<g>
				<path style="fill:#FFFFFF;" d="M71.791,59.11c0.252-0.294,2.721,1.326,5.446,1.464c1.312,0.061-3.629,12.929-10.027,15.175
					c-9.441,3.32-11.578-12.39-11.869-13.722c-0.283-1.324,5.869-2.388,5.869-3.052C63.696,60.294,69.401,61.959,71.791,59.11z"/>
				<g>
					<path style="fill:#D8D9D8;" d="M55.379,61.997c-0.282-1.326,5.859-2.387,5.859-3.047c0.743,1.291,2.973,1.581,5.221,1.625
						l-0.221,15.57C59.461,75.459,55.617,63.104,55.379,61.997z"/>
				</g>
			</g>
			<path style="fill:#010101;" d="M60.673,58.315c-5.338,2.093-8.051,1.993-10.761,3.673c-2.708,1.666-4.172,8.542-4.172,8.542
				s4.997,5.855,5.452,7.111c0.461,1.26,2.787,9.734,2.787,15.688c0,0.855,13.873,0.25,13.873,0.25l-1.151-16.111
				c0,0-3.914-8.234-6.176-16.97L60.673,58.315z"/>
			<path style="fill:#2B2C2B;" d="M72.748,59.11c5.347,2.093,6.597,1.198,9.305,2.878c2.711,1.666,8.135,17.636,8.135,17.636
				s-2.844,1.133-4.54,2.953c-0.329,0.357-5.147-4.859-5.223-4.652c-0.456,1.26-4.065,12.342-3.676,15.404
				c0.083,0.605-9.94,0.732-9.94,0.732l-0.467-16.934c0,0,3.861-7.684,6.12-16.425L72.748,59.11z"/>
			<path style="fill:#010101;" d="M71.555,57.614c0-0.164,2.957,1.738,2.957,1.738l1.515,4.81l-4.104-0.266l2.751,3l-8.578,10.572
				c0,0,3.375-14.154,4.444-16.343C71.611,58.921,71.555,57.614,71.555,57.614z"/>
			<path style="fill:#2B2C2B;" d="M61.352,57.255c0-0.159-3.418,2.098-3.418,2.098l-0.515,4.908l3.106-0.363l-2.032,2.25
				l7.849,11.438c0,0-1.609-11.303-2.517-13.564C62.611,61,61.352,57.255,61.352,57.255z"/>
			<path style="fill:#010101;" d="M45.786,70.252c0,0-2.116,15.725-2.724,16.852c-0.606,1.121-4.814,23.096-4.814,23.096
				l8.835,1.551c0,0,1.945-13.736,3.504-23.016c0.929-5.529,1.351-8.793,1.462-9.215C52.351,78.391,45.786,70.252,45.786,70.252z"/>
			<g>
				<path style="fill:#2B2C2B;" d="M76.524,93.037c0.803,2.023,6.748,16.709,5.657,28.361c-1.084,11.65-2.716,21.227-2.716,21.227
					l-14.525-1.01l1.411-48.342L76.524,93.037z"/>
				<path style="fill:#010101;" d="M53.979,93.58c-0.808,2.021-4.549,12.055-3.46,23.707c1.089,11.654,4.163,24.832,4.163,24.832
					l10.72-0.504l1.86-48.438L53.979,93.58z"/>
			</g>
			<polygon style="fill:#010101;" points="77.282,91.627 53.692,91.787 53.505,94.811 77.438,94.307 			"/>
			<path style="fill:#FFFFFF;" d="M61.373,56.374c0,0,2.144,2.161,4.842,4.265c-1.592,1.479-4.722,4.775-4.722,4.775l-2.269-6.934
				L61.373,56.374z"/>
			<polygon style="fill:#FFFFFF;" points="66.342,60.639 71.247,65.184 73.884,59.272 71.555,56.885 			"/>
			<g>
				<g>
					<g>
						<g>
							<g>
								<polygon style="fill:#3D5BA9;" points="83.44,71.619 72.154,95.381 78.561,97.998 89.849,74.234 								"/>
							</g>
						</g>
						<path style="fill:#5684C4;" d="M76.452,94.543l-1.038,2.172l3.146,1.283l11.288-23.764l-3.146-1.279l-8.709,18.326
							L76.452,94.543z"/>
					</g>
					<g>
						<path style="fill:#C1D9F1;" d="M75.301,92.779c-0.057-0.016-0.07-0.084-0.036-0.154l0.558-1.18
							c0.032-0.061,0.097-0.098,0.149-0.076l3.447,1.4c0.051,0.025,0.066,0.096,0.036,0.162l-0.558,1.184
							c-0.031,0.061-0.099,0.096-0.152,0.072L75.301,92.779z"/>
						<g>
							<g>
								<path style="fill:#FFFFFF;" d="M75.301,92.779l3.444,1.408c0.054,0.023,0.121-0.012,0.152-0.072l0.279-0.602l-3.631-1.48
									l-0.281,0.592C75.23,92.695,75.244,92.764,75.301,92.779z"/>
							</g>
						</g>
					</g>
					<g>
						<path style="fill:#C1D9F1;" d="M83.085,76.393c-0.053-0.027-0.053-0.127,0.002-0.234l0.929-1.963
							c0.047-0.107,0.136-0.176,0.188-0.154l3.443,1.4c0.05,0.023,0.05,0.127,0,0.236l-0.926,1.961
							c-0.055,0.105-0.137,0.178-0.189,0.154L83.085,76.393z"/>
						<g>
							<g>
								<path style="fill:#FFFFFF;" d="M83.085,76.393l3.447,1.4c0.053,0.023,0.135-0.049,0.189-0.154l0.459-0.99l-3.625-1.482
									l-0.469,0.992C83.032,76.266,83.032,76.365,83.085,76.393z"/>
							</g>
						</g>
					</g>
				</g>
				<g>
					<g>
						<g>
							<g>
								<polygon style="fill:#CECAC6;" points="77.39,69.148 66.102,92.908 72.514,95.529 83.796,71.762 								"/>
							</g>
						</g>
						<path style="fill:#C1D9F1;" d="M70.413,92.082l-1.029,2.172l3.145,1.279l11.287-23.76l-3.141-1.283l-8.71,18.33L70.413,92.082
							z"/>
					</g>
					<g>
						<path style="fill:#C1D9F1;" d="M69.137,90.266c-0.052-0.027-0.07-0.094-0.048-0.16l0.567-1.18
							c0.034-0.061,0.099-0.092,0.151-0.078l3.445,1.406c0.051,0.025,0.07,0.09,0.039,0.164l-0.562,1.174
							c-0.033,0.064-0.098,0.104-0.154,0.078L69.137,90.266z"/>
						<g>
							<g>
								<path style="fill:#FFFFFF;" d="M69.137,90.266l3.439,1.404c0.057,0.025,0.121-0.014,0.154-0.078l0.278-0.594l-3.63-1.482
									l-0.29,0.59C69.066,90.172,69.085,90.238,69.137,90.266z"/>
							</g>
						</g>
					</g>
					<g>
						<path style="fill:#C1D9F1;" d="M76.919,73.879c-0.045-0.025-0.049-0.131,0-0.24l0.929-1.965
							c0.049-0.102,0.138-0.174,0.194-0.148l3.439,1.4c0.052,0.029,0.056,0.131,0.006,0.234l-0.936,1.963
							c-0.048,0.104-0.135,0.176-0.189,0.152L76.919,73.879z"/>
						<g>
							<g>
								<path style="fill:#FFFFFF;" d="M76.919,73.879l3.443,1.396c0.055,0.023,0.142-0.049,0.189-0.152l0.471-0.986l-3.633-1.482
									l-0.471,0.984C76.87,73.748,76.874,73.854,76.919,73.879z"/>
							</g>
						</g>
					</g>
				</g>
				<g>
					<g>
						<g>
							<polygon style="fill:#03804B;" points="70.863,66.482 59.572,90.246 65.982,92.863 77.269,69.1 							"/>
						</g>
					</g>
					<path style="fill:#3CB56D;" d="M63.868,89.408l-1.03,2.168l3.145,1.287L77.269,69.1l-3.145-1.285l-8.705,18.33L63.868,89.408z"
						/>
				</g>
				<path style="fill:#C1D9F1;" d="M62.725,87.646c-0.053-0.02-0.072-0.094-0.042-0.152l0.561-1.178
					c0.035-0.07,0.102-0.105,0.154-0.084l3.441,1.408c0.051,0.023,0.074,0.092,0.042,0.152l-0.562,1.186
					c-0.032,0.061-0.104,0.098-0.155,0.07L62.725,87.646z"/>
				<path style="fill:#C1D9F1;" d="M70.513,71.254c-0.055-0.016-0.055-0.127-0.004-0.236l0.931-1.953
					c0.049-0.115,0.129-0.178,0.189-0.162l3.441,1.404c0.053,0.029,0.055,0.133,0,0.238l-0.933,1.967
					c-0.051,0.098-0.135,0.168-0.184,0.146L70.513,71.254z"/>
				<g>
					<g>
						<path style="fill:#FFFFFF;" d="M70.513,71.254l3.441,1.404c0.049,0.021,0.133-0.049,0.184-0.146l0.475-0.992l-3.636-1.488
							l-0.468,0.986C70.458,71.127,70.458,71.238,70.513,71.254z"/>
					</g>
				</g>
			</g>
			<g>
				<path style="fill:#E9C3B7;" d="M82.251,84.639c-1.153-0.379-5.027-1.035-5.579-1.623c-0.551-0.582-2.062-2.475-2.782-2.83
					c-0.717-0.365-3.271-1.947-3.781-1.85c-0.513,0.09-0.554,0.391-0.038,0.789c0.515,0.4,1.991,1.797,1.579,1.877
					c-0.402,0.074-4.313-1.4-5.054-1.508c-1.228-0.17-0.825,0.451-0.825,0.451l3.396,1.51c0,0-3.613-1.035-4.152-1.035
					c-0.529,0.004-1.303,0.346-0.49,0.695c0.826,0.326,4.082,1.828,4.082,1.828s-3.45-1.092-3.88-1.109
					c-0.433-0.018-0.689,0.34,0.545,0.936c1.119,0.537,3.381,1.229,3.381,1.229l-3.36,0.072c0,0-0.899,0.26,1.579,0.889
					c2.476,0.617,7.346,0.9,7.979,0.879c0.636-0.014,5.58,1.711,7.275,2.178C83.834,88.482,82.251,84.639,82.251,84.639z"/>
				<polygon style="fill:#FFFFFF;" points="78.908,82.783 76.229,82.154 74.563,87.475 77.898,88.412 				"/>
				<path style="fill:#2B2C2B;" d="M89.102,77.17c1.086,2.076,1.228,2.832,1.632,3.777c1.565,3.621,0.117,6.793-1.856,7.99
					c-1.357,0.824-8.747,1.324-12.315,0.242c0.889-1.164,0.738-6.602,1.244-7.164c0.383-0.43,6.289-0.314,7.168-0.426
					c2.098-0.268,1.892-0.963,2.572-1.904L89.102,77.17z"/>
			</g>
		</g>
	</g>
</g>
</svg>
