<?xml version="1.0" encoding="iso-8859-1"?>
<!-- Generator: Adobe Illustrator 16.0.0, SVG Export Plug-In . SVG Version: 6.00 Build 0)  -->
<!DOCTYPE svg PUBLIC "-//W3C//DTD SVG 1.1//EN" "http://www.w3.org/Graphics/SVG/1.1/DTD/svg11.dtd">
<svg version="1.1" id="Layer_1" xmlns="http://www.w3.org/2000/svg" xmlns:xlink="http://www.w3.org/1999/xlink" x="0px" y="0px"
	 width="170px" height="130px" viewBox="0 0 170 130" style="enable-background:new 0 0 170 130;" xml:space="preserve">
<g>
	<rect x="63.653" y="106.146" style="fill:#28585D;" width="43.444" height="15.072"/>
	<rect x="63.653" y="106.146" style="fill:#1E484A;" width="43.444" height="8.03"/>
	<path style="fill:#28585D;" d="M118.901,126.885v-3.777c0-2.608-2.113-4.723-4.722-4.723h-57.61c-2.608,0-4.722,2.114-4.722,4.723
		v3.777H118.901z"/>
	<path style="fill:#2E6467;" d="M114.18,118.385h-57.61c-2.608,0-4.722,2.114-4.722,4.723v2.876c0-2.607,2.114-4.722,4.722-4.722
		h57.61c2.608,0,4.722,2.114,4.722,4.722v-2.876C118.901,120.499,116.788,118.385,114.18,118.385z"/>
	<g>
		<path style="fill:#28585D;" d="M159.611,3.057H11.138c-2.608,0-4.722,2.114-4.722,4.722v9.443v79.479v9.443
			c0,2.608,2.114,4.723,4.722,4.723h148.473c2.608,0,4.723-2.114,4.723-4.723v-9.443V17.223V7.779
			C164.334,5.171,162.22,3.057,159.611,3.057z"/>
		<polygon style="fill:#1E484A;" points="148.885,89.531 122.485,93.571 125.132,110.868 152.15,110.868 		"/>
		<rect x="13.033" y="9.442" style="fill:#20BEC7;" width="144.683" height="91.263"/>
	</g>
</g>
</svg>
